<?xml version="1.0" standalone="no"?>
<!DOCTYPE svg PUBLIC "-//W3C//DTD SVG 20010904//EN"
 "http://www.w3.org/TR/2001/REC-SVG-20010904/DTD/svg10.dtd">
<svg version="1.0" xmlns="http://www.w3.org/2000/svg"
 width="486.000000pt" height="70.000000pt" viewBox="0 0 486.000000 70.000000"
 preserveAspectRatio="xMidYMid meet">

<g transform="translate(0.000000,70.000000) scale(0.100000,-0.100000)"
fill="#000000" stroke="none">
<path d="M2340 405 l0 -185 30 0 30 0 0 73 c0 76 5 90 31 99 29 11 39 -13 39
-94 l0 -78 30 0 30 0 0 88 c0 76 -3 91 -21 111 -19 20 -28 22 -65 17 l-44 -6
0 80 0 80 -30 0 -30 0 0 -185z"/>
<path d="M4100 405 l0 -185 30 0 30 0 0 74 c0 54 4 79 16 90 36 37 54 9 54
-86 l0 -78 30 0 30 0 0 88 c0 75 -3 92 -20 110 -22 24 -59 28 -91 12 -18 -10
-19 -7 -19 75 l0 85 -30 0 -30 0 0 -185z"/>
<path d="M287 544 c-4 -4 -7 -18 -7 -30 0 -21 -5 -23 -62 -26 l-63 -3 -3 -149
c-2 -113 1 -151 10 -158 17 -10 439 -10 456 0 9 7 12 45 10 158 l-3 149 -60 5
c-53 4 -60 8 -65 30 -6 24 -8 25 -106 28 -55 1 -103 0 -107 -4z m190 -54 c11
-28 14 -30 67 -30 l56 0 0 -130 0 -130 -210 0 -210 0 0 130 0 130 56 0 c52 0
56 2 65 30 11 30 11 30 88 30 76 0 77 0 88 -30z"/>
<path d="M332 434 c-25 -17 -52 -64 -52 -89 0 -61 72 -123 129 -110 32 7 75
49 86 83 9 32 -12 88 -42 112 -31 24 -90 26 -121 4z m113 -39 c14 -13 25 -36
25 -50 0 -32 -50 -85 -80 -85 -30 0 -80 53 -80 85 0 36 41 75 80 75 19 0 40
-9 55 -25z"/>
<path d="M541 431 c-17 -11 -7 -41 13 -41 22 0 30 20 15 36 -9 8 -19 10 -28 5z"/>
<path d="M2830 470 c0 -22 -4 -40 -10 -40 -5 0 -10 -9 -10 -20 0 -11 5 -20 10
-20 6 0 10 -35 10 -85 l0 -85 30 0 30 0 0 85 c0 78 2 85 20 85 11 0 20 5 20
10 0 6 -9 19 -20 30 -11 11 -20 33 -20 50 0 27 -3 30 -30 30 -28 0 -30 -2 -30
-40z"/>
<path d="M902 424 c-12 -8 -29 -28 -37 -44 -43 -84 25 -179 119 -167 60 8 96
51 96 116 0 42 -5 54 -31 80 -25 26 -38 31 -78 31 -26 0 -56 -7 -69 -16z m98
-54 c11 -11 20 -28 20 -38 0 -29 -29 -62 -55 -62 -46 0 -62 77 -23 104 29 20
34 20 58 -4z"/>
<path d="M1110 330 l0 -110 35 0 34 0 3 83 c3 80 4 82 28 82 24 0 25 -2 28
-82 l3 -83 34 0 35 0 0 84 c0 103 -19 136 -79 136 -20 0 -42 -5 -49 -12 -9 -9
-12 -9 -12 0 0 7 -13 12 -30 12 l-30 0 0 -110z"/>
<path d="M1350 330 l0 -110 35 0 35 0 0 75 c0 63 3 76 19 85 11 5 27 7 35 4
12 -5 16 1 16 25 0 27 -3 31 -28 31 -15 0 -33 -5 -40 -12 -9 -9 -12 -9 -12 0
0 7 -13 12 -30 12 l-30 0 0 -110z"/>
<path d="M1529 411 c-25 -25 -29 -37 -29 -81 0 -46 4 -56 34 -86 25 -25 43
-34 67 -34 40 0 99 33 99 55 0 22 -46 30 -65 11 -28 -28 -65 -13 -65 26 0 16
9 18 70 18 78 0 81 4 56 65 -17 41 -42 55 -96 55 -33 0 -48 -6 -71 -29z m106
-31 c18 -20 17 -20 -23 -20 -43 0 -51 7 -30 28 17 17 32 15 53 -8z"/>
<path d="M1764 425 c-56 -38 -57 -140 -3 -189 28 -24 38 -28 76 -23 67 7 110
57 62 72 -13 4 -27 1 -38 -9 -31 -28 -71 -13 -71 26 0 16 9 18 71 18 l72 0 -6
38 c-9 51 -46 82 -100 82 -24 0 -52 -7 -63 -15z m92 -42 c17 -17 16 -18 -20
-21 -45 -4 -54 2 -36 23 16 20 35 19 56 -2z"/>
<path d="M2171 431 c-8 -5 -29 -7 -48 -4 l-33 6 0 -161 c0 -152 1 -161 20
-167 32 -10 40 3 40 66 0 32 2 59 4 59 3 0 16 -4 30 -10 71 -27 139 58 115
144 -16 59 -84 94 -128 67z m57 -61 c24 -23 27 -41 12 -70 -19 -35 -45 -42
-74 -19 -29 23 -33 54 -10 87 19 27 44 28 72 2z"/>
<path d="M2618 424 c-36 -19 -48 -43 -48 -98 0 -81 63 -127 144 -105 116 32
88 220 -32 219 -20 -1 -49 -7 -64 -16z m94 -51 c33 -29 19 -91 -24 -106 -27
-10 -61 25 -61 63 0 53 48 77 85 43z"/>
<path d="M2980 423 c-39 -27 -49 -45 -50 -86 0 -84 63 -138 139 -117 52 14 73
40 79 100 4 46 2 52 -31 85 -28 28 -43 35 -74 35 -21 0 -50 -8 -63 -17z m92
-50 c26 -23 24 -78 -4 -97 -29 -20 -34 -20 -58 4 -53 53 6 144 62 93z"/>
<path d="M3217 420 c-94 -74 -20 -248 84 -196 29 14 29 14 29 -14 0 -30 -22
-60 -44 -60 -7 0 -22 9 -34 20 -22 21 -72 28 -72 10 0 -5 13 -24 28 -41 23
-26 36 -32 68 -32 92 0 114 41 114 209 l0 117 -40 -6 c-22 -3 -43 -1 -46 4
-10 16 -61 10 -87 -11z m103 -50 c27 -27 25 -56 -5 -86 -24 -24 -28 -25 -48
-11 -34 22 -44 60 -23 91 20 31 49 33 76 6z"/>
<path d="M3515 431 c-3 -5 -21 -7 -40 -4 l-35 6 0 -107 0 -106 25 0 c24 0 25
3 25 58 0 72 17 106 53 110 21 3 27 9 27 28 0 19 -5 24 -24 24 -14 0 -27 -4
-31 -9z"/>
<path d="M3620 412 c-25 -26 -30 -38 -30 -81 0 -64 37 -112 85 -111 17 0 51 0
78 0 l47 -1 0 106 0 105 -37 0 c-21 -1 -55 2 -75 6 -33 5 -41 2 -68 -24z m112
-39 c33 -29 19 -91 -24 -106 -27 -10 -61 25 -61 63 0 53 48 77 85 43z"/>
<path d="M3936 433 c-3 -4 -24 -6 -46 -5 l-40 3 0 -160 c0 -151 1 -160 20
-166 32 -10 40 3 40 66 0 32 2 59 5 59 2 0 15 -5 28 -11 18 -8 32 -7 61 5 72
30 87 134 26 189 -29 26 -77 36 -94 20z m54 -63 c33 -33 21 -86 -23 -103 -29
-11 -71 37 -62 71 14 55 49 68 85 32z"/>
<path d="M4320 425 c0 -3 18 -42 41 -87 l41 -82 -31 -70 c-24 -53 -28 -72 -19
-78 21 -13 35 -9 50 15 21 32 138 285 138 297 0 5 -12 10 -28 10 -24 0 -31 -7
-53 -57 l-26 -58 -28 58 c-24 50 -31 57 -56 57 -16 0 -29 -2 -29 -5z"/>
</g>
</svg>
